<svg xmlns="http://www.w3.org/2000/svg" version="1.1" xmlns:xlink="http://www.w3.org/1999/xlink" width="200" height="200"><svg xmlns="http://www.w3.org/2000/svg" version="1.1" xmlns:xlink="http://www.w3.org/1999/xlink" viewBox="0 0 200 200"><rect width="200" height="200" fill="url('#gradient')"></rect><defs><linearGradient id="SvgjsLinearGradient1001" gradientTransform="rotate(360 0.5 0.5)"><stop offset="0%" stop-color="#be0cb7"></stop><stop offset="100%" stop-color="#7a1c79"></stop></linearGradient></defs><g><g fill="#2c313e" transform="matrix(5.542354091946527,0,0,5.542354091946527,13.262746402052827,141.59524862642664)" stroke="#9d5e78" stroke-width="1.15"><path d="M9.17-4.81L12.58-4.81Q12.51-3.33 11.78-2.19Q11.04-1.05 9.72-0.43Q8.40 0.20 6.70 0.20L6.70 0.20Q3.90 0.20 2.29-1.63Q0.67-3.46 0.67-6.79L0.67-6.79L0.67-7.49Q0.67-9.58 1.40-11.15Q2.13-12.71 3.50-13.57Q4.86-14.42 6.66-14.42L6.66-14.42Q9.25-14.42 10.82-13.06Q12.39-11.70 12.61-9.31L12.61-9.31L9.19-9.31Q9.15-10.61 8.54-11.17Q7.92-11.74 6.66-11.74L6.66-11.74Q5.38-11.74 4.79-10.78Q4.19-9.82 4.16-7.72L4.16-7.72L4.16-6.72Q4.16-4.44 4.73-3.47Q5.30-2.49 6.70-2.49L6.70-2.49Q7.88-2.49 8.51-3.05Q9.13-3.60 9.17-4.81L9.17-4.81ZM18.08 0L14.78 0L14.78-8.28L13.24-8.28L13.24-10.57L14.78-10.57L14.78-11.41Q14.78-13.21 15.84-14.21Q16.90-15.21 18.83-15.21L18.83-15.21Q19.53-15.21 20.37-15L20.37-15L20.38-12.58Q20.08-12.67 19.57-12.67L19.57-12.67Q18.08-12.67 18.08-11.38L18.08-11.38L18.08-10.57L20.14-10.57L20.14-8.28L18.08-8.28L18.08 0ZM26.17 0.20L26.17 0.20Q23.74 0.20 22.24-1.25Q20.73-2.71 20.73-5.03L20.73-5.03L20.73-5.30Q20.73-6.92 21.33-8.16Q21.93-9.40 23.09-10.08Q24.24-10.76 25.82-10.76L25.82-10.76Q28.05-10.76 29.34-9.38Q30.63-8.00 30.63-5.53L30.63-5.53L30.63-4.25L24.08-4.25Q24.26-3.36 24.85-2.85Q25.45-2.34 26.40-2.34L26.40-2.34Q27.96-2.34 28.84-3.44L28.84-3.44L30.34-1.66Q29.73-0.81 28.60-0.31Q27.47 0.20 26.17 0.20ZM25.80-8.22L25.80-8.22Q24.36-8.22 24.08-6.31L24.08-6.31L27.40-6.31L27.40-6.56Q27.42-7.35 27.00-7.79Q26.58-8.22 25.80-8.22Z"></path></g></g></svg><style>@media (prefers-color-scheme: light) { :root { filter: none; } }
@media (prefers-color-scheme: dark) { :root { filter: none; } }
</style></svg>